<?xml version="1.0" encoding="UTF-8"?>
<svg id="Layer_1" data-name="Layer 1" xmlns="http://www.w3.org/2000/svg" viewBox="0 0 799.96 800.26">
  <defs>
    <style>
      .cls-1 {
        fill: #fff;
        stroke-width: 0px;
      }
    </style>
  </defs>
  <path class="cls-1" d="M400.72,0C179.72-.89.3,178.23,0,399.54c-.3,221.3,178.53,400.42,399.83,400.72,220.71.3,399.53-178.23,400.13-399.53C800.85,179.72,622.02.6,400.72,0ZM635.69,634.8c-16.04-17.23-34.75-30.89-55.84-41.59-38.62-19.9-79.91-30-122.98-34.46-55.25-5.64-110.2-4.16-164.56,8.61-48.42,11.59-92.98,30.6-128.32,67.73-125.95-124.76-134.27-337.45,1.78-472.31,135.45-133.67,356.46-127.14,481.82,13.37,128.32,144.37,103.08,348.44-11.89,458.65Z"/>
  <path class="cls-1" d="M538.25,411.12c-18.41,45.75-54.95,69.21-101.59,79.01-11.88,2.67-24.36,3.27-32.08,4.16-48.12-1.19-87.63-12.77-118.82-44.86-20.2-20.79-29.71-47.53-35.94-75.15-10.4-46.93-8.91-93.27,11.59-137.24,22.87-49.01,62.67-74.26,115.55-80.2,34.46-3.86,68.32-.59,99.81,15.15,44.26,22.58,66.84,61.19,75.75,108.13,8.31,45.15,3.27,88.82-14.26,131Z"/>
</svg>