<?xml version="1.0" encoding="UTF-8"?>
<svg id="Layer_1" data-name="Layer 1" xmlns="http://www.w3.org/2000/svg" viewBox="0 0 2814.64 806.25">
  <defs>
    <style>
      .cls-1 {
        fill: #fff;
        stroke-width: 0px;
      }
    </style>
  </defs>
  <path class="cls-1" d="M938.82,85.14h75.71v237.25c0,2.65.98,4.89,2.93,6.64,1.89,1.82,4.05,2.65,6.43,2.65h39.18c2.86,0,5.17-.91,6.84-2.79,1.61-1.96,2.44-4.05,2.44-6.5V85.14h75.57c3.14,0,5.59-1.05,7.19-3.07,1.68-2.03,2.51-4.4,2.51-7.12v-35.48c-.28-2.93-1.4-5.17-3.28-6.71-1.89-1.47-4.05-2.16-6.43-2.16h-209.11c-2.65,0-4.82.77-6.57,2.37-1.68,1.68-2.58,3.84-2.58,6.5v35.48c0,3.42.91,5.94,2.58,7.61,1.75,1.75,3.91,2.58,6.57,2.58Z"/>
  <path class="cls-1" d="M1248.64,331.68h196.75c5.8,0,8.73-2.86,8.73-8.52v-37.09c0-3.35-.56-5.87-1.75-7.47-1.26-1.68-3.7-2.44-7.4-2.44h-146.46v-73.61h109.3c2.93,0,5.03-.98,6.36-2.86,1.33-1.89,2.03-4.05,2.03-6.5v-36.67c0-3.42-.84-5.8-2.37-7.19-1.61-1.47-3.77-2.03-6.36-1.75h-108.95v-61.46h141.29c3.35,0,5.8-.91,7.47-2.86,1.68-1.89,2.51-4.05,2.51-6.5v-35.83c0-3-.77-5.45-2.23-7.4-1.47-1.96-3.91-2.93-7.33-2.93h-191.58c-5.8,0-8.73,3.21-8.73,9.71v282.86c0,3,.84,5.17,2.58,6.5,1.75,1.4,3.77,2.02,6.15,2.02Z"/>
  <path class="cls-1" d="M1731.95,331.68h60.41c2.79,0,4.19-.7,4.19-2.23,0-1.19-.98-3.14-3-5.87l-122.43-161.61,104.97-124.74c1.54-1.75,2.37-3.14,2.37-4.26,0-1.61-1.82-2.37-5.38-2.37h-56.85c-3.14,0-6.08,2.09-8.73,6.29l-111.47,123.06V39.46c0-1.33-.35-2.51-.98-3.63-.7-1.05-1.47-2.03-2.44-2.86-.91-.77-1.95-1.4-3.07-1.82-1.12-.42-2.16-.56-3.07-.56h-40.3c-2.79,0-4.96.84-6.5,2.58-1.54,1.75-2.3,3.84-2.3,6.29v283.28c0,6.01,2.93,8.94,8.8,8.94h40.3c6.36,0,9.57-2.93,9.57-8.94v-83.11l33.8-35.69,93.38,121.46c2.65,4.19,5.52,6.29,8.73,6.29Z"/>
  <path class="cls-1" d="M2066.42,326.23c2.51,3.63,5.24,5.45,8.17,5.45h43.09c6.22,0,9.36-2.72,9.36-8.31V39.46c0-2.65-.98-4.82-2.93-6.5-1.89-1.61-4.19-2.37-6.84-2.37h-38.34c-2.23,0-4.19.63-5.73,2.03-1.61,1.33-2.58,3.21-3,5.66v194.23c-22.63-32.97-45.12-65.72-67.4-98.2-22.21-32.55-44.7-65.3-67.33-98.27-1.33-1.89-2.86-3.28-4.47-4.19-1.68-.84-3.42-1.26-5.31-1.26h-45.68c-2.79,0-4.96.84-6.5,2.58-1.47,1.75-2.23,3.91-2.23,6.5v283.28c0,2.72.7,4.89,2.1,6.43,1.4,1.54,3.56,2.3,6.64,2.3h38.13c3.35,0,5.66-.7,7.05-2.23,1.4-1.47,2.1-3.7,2.1-6.71V119.36c23.19,34.64,46.37,69.14,69.49,103.51,23.12,34.43,46.31,68.86,69.63,103.37Z"/>
  <path class="cls-1" d="M2513.52,140.26c-3.75-13.19-8.84-25.55-15.43-37.09-6.44-11.54-14.46-22.03-23.68-31.47-9.29-9.44-19.55-17.53-30.87-24.2-11.24-6.74-23.3-11.91-36.19-15.66-12.96-3.67-26.37-5.54-40.23-5.54s-27.57,1.87-40.46,5.54c-12.89,3.75-25.02,8.92-36.26,15.66-11.31,6.67-21.5,14.76-30.72,24.2s-17.08,19.93-23.75,31.47c-6.59,11.54-11.69,23.9-15.29,37.09-3.6,13.26-5.39,26.97-5.39,41.21s1.8,28.02,5.39,41.28c3.6,13.11,8.69,25.4,15.21,36.86,6.52,11.46,14.39,21.88,23.6,31.17,9.22,9.44,19.48,17.53,30.72,24.28,11.24,6.74,23.38,11.91,36.26,15.66,12.96,3.6,26.45,5.39,40.46,5.39s27.5-1.8,40.46-5.39c12.89-3.75,24.95-8.92,36.19-15.51,11.31-6.74,21.58-14.76,30.87-24.2,9.22-9.37,17.23-19.78,23.68-31.32,6.59-11.46,11.69-23.75,15.43-36.86,3.6-13.19,5.39-26.82,5.39-41.13s-1.8-28.17-5.39-41.43ZM2453.8,219.38c-4.79,11.84-11.46,22.18-19.93,31.02-8.47,8.77-18.43,15.66-29.9,20.83-11.46,5.17-23.83,7.72-37.09,7.72s-25.77-2.55-37.24-7.72c-11.54-5.17-21.43-12.06-29.82-20.83-8.47-8.84-15.06-19.18-19.93-31.02-4.79-11.99-7.27-24.73-7.27-38.36s2.47-26.22,7.27-38.14c4.87-11.84,11.46-22.25,19.93-31.17,8.39-8.77,18.28-15.81,29.82-20.9,11.46-5.17,23.83-7.72,37.24-7.72s25.62,2.55,37.09,7.72c11.46,5.09,21.43,12.14,29.9,20.9,8.47,8.92,15.14,19.33,19.93,31.17,4.87,11.91,7.27,24.58,7.27,38.14s-2.4,26.37-7.27,38.36Z"/>
  <path class="cls-1" d="M1157.59,635.37c-1.8-6.89-4.2-13.26-7.34-19.33-3.15-6.14-6.97-11.84-11.31-17.08-4.35-5.32-9.22-9.97-14.69-14.01,6.74-7.12,12.06-15.43,15.96-24.95,3.82-9.44,5.69-19.63,5.69-30.57,0-11.99-2.17-23-6.44-33.27-4.35-10.34-10.19-19.18-17.68-26.82-7.42-7.57-16.33-13.56-26.37-17.98-10.11-4.27-20.98-6.52-32.44-6.52h-124.38c-5.92,0-8.92,3.22-8.92,9.52v282.92c0,2.92.82,5.17,2.55,6.52,1.65,1.5,3.75,2.17,6.37,2.17h136.74c11.84,0,22.85-2.4,33.19-7.19,10.34-4.79,19.33-11.31,26.97-19.63,7.64-8.24,13.64-17.68,18.06-28.55,4.42-10.79,6.67-22.18,6.67-34.32,0-7.12-.9-14.09-2.62-20.9ZM987.14,494.13h65.11c5.32,0,10.19.9,14.61,2.7,4.42,1.87,8.32,4.35,11.46,7.64,3.15,3.22,5.69,7.04,7.42,11.54,1.87,4.42,2.77,9.29,2.77,14.39s-.97,10.19-2.85,14.69c-1.87,4.57-4.35,8.47-7.64,11.76-3.3,3.37-7.12,5.92-11.69,7.79-4.42,1.95-9.44,2.92-14.69,2.92h-64.51v-73.43ZM1099,669.01c-1.57,4.57-3.82,8.62-6.67,12.21-2.85,3.75-6.22,6.74-10.04,9.14-3.9,2.47-8.02,3.97-12.51,4.72-2.7.52-5.39.9-8.02,1.12-2.7.22-5.32.22-8.09.22h-66.53v-82.34h66.53c2.77,0,5.47.22,8.24.6,2.7.37,5.32.67,8.02,1.12,4.5.75,8.69,2.32,12.59,4.72,3.82,2.4,7.12,5.32,9.89,8.84,2.77,3.52,5.02,7.42,6.59,11.84,1.57,4.42,2.4,8.84,2.4,13.49,0,5.02-.82,9.82-2.4,14.31Z"/>
  <path class="cls-1" d="M1298.15,453.75v46.45h-57.47v-46.45c0-2.4.75-4.5,2.17-6.29,1.42-1.72,3.6-2.62,6.52-2.62h39.41c2.25,0,4.42.82,6.37,2.47,1.95,1.57,3,3.75,3,6.44Z"/>
  <path class="cls-1" d="M1240.69,530.85h57.47v206.19c0,5.92-3.15,8.92-9.37,8.92h-39.41c-5.77,0-8.69-3-8.69-8.92v-206.19Z"/>
  <path class="cls-1" d="M1580.74,690.39h-124.46v-236.62c0-2.86-.84-5.03-2.65-6.64-1.75-1.54-3.84-2.3-6.22-2.3h-39.39c-2.93,0-5.17.91-6.78,2.65-1.54,1.75-2.37,3.84-2.37,6.29v283.28c0,5.94,2.93,8.94,8.73,8.94h173.14c2.65,0,4.75-.91,6.36-2.79,1.61-1.82,2.37-3.91,2.37-6.36v-37.09c0-2.86-.84-5.1-2.58-6.84-1.75-1.68-3.77-2.51-6.15-2.51Z"/>
  <path class="cls-1" d="M1870.44,690.39h-146.46v-73.61h109.3c2.93,0,5.03-.91,6.36-2.79,1.33-1.96,2.03-4.12,2.03-6.5v-36.74c0-3.35-.84-5.8-2.37-7.19-1.61-1.4-3.77-2.03-6.36-1.75h-108.95v-61.39h141.29c3.35,0,5.8-.98,7.47-2.86,1.68-1.89,2.51-4.12,2.51-6.5v-35.83c0-3-.77-5.52-2.24-7.47-1.47-1.96-3.91-2.93-7.33-2.93h-191.58c-5.8,0-8.73,3.21-8.73,9.71v282.93c0,2.93.84,5.1,2.58,6.5,1.75,1.33,3.77,2.02,6.15,2.02h196.75c5.8,0,8.73-2.86,8.73-8.59v-37.02c0-3.42-.56-5.94-1.75-7.54-1.19-1.61-3.7-2.44-7.4-2.44Z"/>
  <path class="cls-1" d="M2160.08,608.95c-4.68-5.87-10.27-11.03-16.76-15.57-6.49-4.54-13.48-8.66-20.95-12.36-7.47-3.7-15.37-7.05-23.54-10.06-8.24-3-16.55-5.73-24.86-8.31-7.26-2.3-14.25-4.61-20.88-6.98-6.63-2.37-12.5-4.96-17.6-7.82-5.1-2.86-9.15-6.08-12.08-9.71-3-3.7-4.47-7.96-4.47-12.78,0-4.47.98-8.66,3-12.57,1.96-3.91,4.89-7.33,8.73-10.27,3.84-2.93,8.59-5.17,14.32-6.91,5.66-1.68,12.22-2.51,19.63-2.51,5.87,0,11.59.98,17.18,2.86,5.66,1.89,10.89,4.19,15.85,6.84,4.89,2.72,9.29,5.66,13.27,8.73,3.98,3.14,7.26,5.94,9.78,8.52l.35.21c1.89,1.47,3.56,2.65,5.03,3.56,1.4.91,3,1.33,4.75,1.33,1.19,0,2.65-.63,4.33-1.82,1.75-1.26,3.7-2.79,5.8-4.61,2.1-1.82,4.26-3.84,6.36-6.15,2.1-2.3,4.19-4.54,6.15-6.71v.21l6.01-6.5c1.19-1.33,2.17-2.86,2.93-4.54.84-1.75,1.19-3.35,1.19-5.03s-.91-3.84-2.65-6.36c-1.82-2.51-4.05-5.1-6.84-7.68-2.79-2.65-5.87-5.24-9.15-7.82-3.35-2.58-6.57-4.89-9.78-6.91-10.55-6.77-22.07-12.08-34.57-15.92-12.43-3.84-24.72-5.73-36.74-5.73-15.92,0-30.31,2.03-43.16,6.15-12.85,4.12-23.82,9.85-32.96,17.25-9.15,7.33-16.2,16.2-21.16,26.54-4.96,10.34-7.47,21.79-7.47,34.36,0,11.24,2.03,21.37,6.08,30.31,4.05,9.01,10.13,17.11,18.16,24.37,8.1,7.19,18.23,13.76,30.31,19.56,12.15,5.8,26.26,11.24,42.46,16.2,6.98,2.02,14.04,4.19,20.95,6.5,6.98,2.3,13.2,5.03,18.79,8.24,5.59,3.14,10.06,6.91,13.48,11.18,3.49,4.19,5.17,9.36,5.17,15.3s-1.33,11.31-3.98,16.2c-2.58,4.89-6.29,9.01-10.89,12.5-4.61,3.42-10.13,6.08-16.48,7.96-6.35,1.89-13.2,2.86-20.46,2.86-5.31,0-10.97-.91-16.97-2.72-6.08-1.82-12.15-4.33-18.23-7.54-6.08-3.14-12.01-6.77-17.74-10.83-5.8-4.05-10.97-8.31-15.65-12.78h.21l-.77-.84c-1.12-1.05-2.45-2.23-3.98-3.42-1.61-1.19-3.35-1.82-5.17-1.82-1.19,0-2.79.63-4.68,1.82-1.96,1.19-4.05,2.72-6.29,4.47-2.24,1.75-4.47,3.7-6.78,5.87-2.24,2.17-4.33,4.12-6.36,5.87l-6.49,6.7c-1.61,1.61-2.79,3.14-3.63,4.47-.77,1.33-1.19,2.79-1.19,4.26,0,2.86,1.47,5.94,4.4,9.36l.42.77v-.21c6.42,7.89,13.83,14.95,22.14,21.23,8.24,6.29,17.04,11.66,26.33,16.13,9.29,4.4,18.93,7.89,28.98,10.34,3.96.93,7.93,1.64,11.92,2.22l-13.46,30.06c-2.59,5.78,0,12.56,5.77,15.14l25.96,11.63c5.78,2.59,12.56,0,15.14-5.77l24.64-55.02c1.68-.47,3.39-.87,5.04-1.4,13.9-4.54,25.91-11.04,36.18-19.49,10.27-8.45,18.3-18.65,24.17-30.52,5.8-11.87,8.73-25.21,8.73-39.95,0-9.08-1.33-17.18-4.05-24.44-2.72-7.26-6.43-13.76-11.17-19.7Z"/>
  <path class="cls-1" d="M2466.27,690.39h-146.46v-73.61h109.3c2.86,0,5.03-.91,6.35-2.79,1.33-1.96,1.96-4.12,1.96-6.5v-36.74c0-3.35-.77-5.8-2.37-7.19-1.61-1.4-3.7-2.03-6.35-1.75h-108.88v-61.39h141.29c3.28,0,5.8-.98,7.47-2.86,1.61-1.89,2.44-4.12,2.44-6.5v-35.83c0-3-.7-5.52-2.16-7.47-1.47-1.96-3.91-2.93-7.4-2.93h-191.51c-5.87,0-8.8,3.21-8.8,9.71v282.93c0,2.93.91,5.1,2.58,6.5,1.75,1.33,3.77,2.02,6.22,2.02h196.68c5.87,0,8.8-2.86,8.8-8.59v-37.02c0-3.42-.63-5.94-1.82-7.54s-3.63-2.44-7.33-2.44Z"/>
  <path class="cls-1" d="M2811.7,447.27c-1.89-1.61-4.19-2.44-6.84-2.44h-38.34c-2.24,0-4.19.7-5.8,2.03-1.54,1.33-2.51,3.28-2.93,5.66v194.3c-22.63-32.97-45.12-65.72-67.4-98.27-22.21-32.48-44.7-65.23-67.33-98.27-1.33-1.89-2.86-3.21-4.47-4.12-1.68-.91-3.42-1.33-5.31-1.33h-45.68c-2.79,0-4.96.91-6.5,2.65-1.47,1.75-2.24,3.91-2.24,6.5v283.28c0,2.72.7,4.82,2.03,6.36,1.4,1.61,3.63,2.37,6.71,2.37h38.13c3.35,0,5.66-.77,7.05-2.23,1.4-1.54,2.1-3.7,2.1-6.7v-203.38c23.19,34.57,46.31,69.07,69.49,103.51,23.05,34.43,46.31,68.86,69.63,103.3,2.51,3.7,5.24,5.52,8.1,5.52h43.16c6.22,0,9.36-2.79,9.36-8.31v-283.91c0-2.72-.98-4.89-2.93-6.5Z"/>
  <path class="cls-1" d="M574.56,578.65h-210.6v9.12c0,51.74.26,103.48-.16,155.23-.1,13.9,4.39,23.83,17.66,29.02h18.09c17.52-3.32,34.68-7.59,50.57-16.19,33.64-18.25,58.29-45.62,78.75-77.18,19.21-29.65,33.41-61.71,44.31-95.25.44-1.37.79-2.76,1.37-4.75Z"/>
  <path class="cls-1" d="M135.39,415.47c2.5-5.68,5.4-7.03,11.12-7.01,54.26.22,108.52.14,162.78.14h8.82v-45.26h-8.82c-54.76,0-109.53-.04-164.29.1-4.59.02-6.95-1.09-8.96-5.64-12.83-29.16-41.95-45.96-72.81-42.52-30.51,3.38-54.95,25.82-61.77,56.68-.38,1.69-.97,3.3-1.45,4.95v18.11c.7,2.62,1.47,5.24,2.11,7.88,7.37,30.11,31.42,50.43,63.4,53.62,29.51,2.92,57.6-13.27,69.87-41.05Z"/>
  <path class="cls-1" d="M464.65,24.96C442.64,9.41,417.89.85,390.78.02c-17.48-.52-26.73,8.44-26.77,25.94-.08,48-.04,95.99-.04,143.99v23.18h211.04c-22.84-65.94-51.76-126.83-110.35-168.18Z"/>
  <path class="cls-1" d="M599.76,318.53c-3.22-24.59-7.59-49.04-11.3-73.6-.62-4.21-2.11-5.98-6.65-5.96-71.04.12-142.1.08-213.13.12-1.23,0-2.44.32-4.39.6v123.08h238.59c-.99-14.9-1.21-29.69-3.12-44.25Z"/>
  <path class="cls-1" d="M364.55,532.91h8.46c68.54,0,137.08-.06,205.6.1,6.14.02,9.16-1.11,10.53-8,7.45-37.24,11.88-74.8,13.47-112.73.04-.95-.16-1.89-.28-3.26h-237.79v123.89Z"/>
  <path class="cls-1" d="M281.61,266.69c-5.24.14-8.9-1.51-12.49-5.24-10.98-11.4-22.22-22.56-33.55-33.58-2.96-2.86-3.44-5.12-1.87-9.06,15.43-38.83-5.8-83.14-45.24-94.93-39.52-11.8-81.25,12.99-90.01,53.49-8.82,40.66,19.52,80.64,61.43,84.83,11.08,1.13,22.76-1.71,33.84-4.21,4.89-1.09,7.51-.81,10.88,2.68,13.68,14.04,27.75,27.67,41.43,41.69,6.36,6.55,13.74,9.61,22.84,9.49,16.27-.22,32.53-.06,49.59-.06v-45.24c-12.43,0-24.63-.24-36.84.12Z"/>
  <path class="cls-1" d="M261.45,461.03c-5.04.26-10.65,4.37-14.64,8.14-14.38,13.66-28.34,27.79-42.12,42.05-3.71,3.83-6.57,4.25-11.58,2.3-34.9-13.56-75.07,3.08-89.61,36.72-15.33,35.51-1.17,76.52,32.11,92.89,27.15,13.37,58.45,9.16,79.96-10.76,22.16-20.5,29.35-51.28,18.17-79.19-1.57-3.91-1.21-6.18,1.79-9.06,11.88-11.56,23.36-23.52,35.37-34.97,2.22-2.11,6.02-3.5,9.14-3.6,12.51-.4,25.04-.16,38.19-.16v-44.73c-19.28,0-38.07-.58-56.78.38Z"/>
  <path class="cls-1" d="M745.84,244.72c-.69-2.32-4.19-5.4-6.43-5.42-34.38-.3-68.76-.16-103.16-.1-.34,0-.71.18-.81.26,4.77,41.33,9.51,82.12,14.28,123.48h122.64c-1.75-14.26-2.2-28.6-5.46-42.28-6.1-25.54-13.7-50.74-21.07-75.95Z"/>
  <path class="cls-1" d="M649.71,408.99c-4.77,41.25-9.51,82.18-14.3,123.55,1.25.08,3.44.36,5.64.36,31.88.02,63.77-.1,95.63.12,5.3.04,7.86-1.51,9.83-6.65,13.88-36.09,22.07-73.39,25.1-111.9.14-1.67.02-3.38.02-5.48h-121.91Z"/>
  <path class="cls-1" d="M619.58,185.8c1.77,6.04,4.27,8.26,10.8,8.18,27.35-.4,54.72-.18,82.08-.18h9.26c-43.93-73.33-102.82-126.97-180.2-161.65,11.52,17.08,22.96,32.59,32.93,49,19.88,32.73,34.4,67.94,45.14,104.65Z"/>
  <path class="cls-1" d="M629.49,577.99c-6.06-.08-8.14,2.3-9.71,7.55-14.36,48.16-34.72,93.47-64.33,134.34-4.49,6.18-9.27,12.17-13.9,18.25,77.38-33.07,136.25-86.73,179.84-159.4-3.28-.26-5.42-.56-7.57-.56-28.12-.04-56.23.18-84.33-.18Z"/>
</svg>